<?xml version="1.0" encoding="utf-8"?>
<!-- Generator: Adobe Illustrator 19.2.0, SVG Export Plug-In . SVG Version: 6.00 Build 0)  -->
<svg version="1.1" id="Layer_1" xmlns="http://www.w3.org/2000/svg" xmlns:xlink="http://www.w3.org/1999/xlink" x="0px" y="0px"
	 viewBox="0 0 960 960" style="enable-background:new 0 0 960 960;" xml:space="preserve">
<style type="text/css">
	.st0{fill:#1A1A1A;}
	.st1{fill:#F2F2F2;}
	.st2{fill:#E2CBA3;}
	.st3{fill:#EFD9AB;}
	.st4{fill:#49AECE;}
	.st5{fill:#333333;}
	.st6{fill:#6DBCDB;}
	.st7{fill:#E6E6E6;}
	.st8{fill:#FFFFFF;}
	.st9{fill:none;stroke:#FFFFFF;stroke-width:8.7296;stroke-miterlimit:10;}
	.st10{fill:none;stroke:#1A1A1A;stroke-width:17.4591;stroke-miterlimit:10;}
	.st11{fill:#CCCCCC;}
	.st12{opacity:0.4;fill:#FFFFFF;enable-background:new    ;}
	.st13{fill:none;stroke:#000000;stroke-width:13.0943;stroke-miterlimit:10;}
	.st14{fill:none;stroke:#000000;stroke-width:13.0943;stroke-linecap:round;stroke-miterlimit:10;}
</style>
<g>
	<path class="st0" d="M283.7,284.4c0,0-10.1-214.8,190.8-214.8s190.7,214.8,190.7,214.8H283.7z"/>
	<path class="st1" d="M478.7,751.1c-155.3,0-214.5-82-214.5-82v-2.8c0,0,51.1-114.2,114.2-114.2h203.2
		c63.1,0,114.2,114.2,114.2,114.2S634,751.1,478.7,751.1z"/>
	<polygon class="st2" points="546.2,552.1 480,598.9 413.8,552.1 413.8,464.8 546.2,464.8 	"/>
	<path class="st3" d="M669.7,295.8c-5-27-26.3-11.2-26.3-11.2v-71.2c0-22-17.8-39.9-39.9-39.9H344.7c-22,0-39.9,17.8-39.9,39.9v70.7
		c-3.5-2.3-21.2-12.6-25.7,11.6c-4.6,25,21.9,60.6,25.8,65.7c2.3,100.8,114.2,139.8,114.2,139.8s30.2,17.8,60.4,17.8
		c30.2,0,60.4-17.8,60.4-17.8s103.6-40.4,103.6-142.9v3.8C643.4,362.2,674.7,322.8,669.7,295.8z"/>
	<path class="st2" d="M474.4,173.6H344.7c-22,0-39.9,17.8-39.9,39.9v70.7c-3.5-2.3-21.2-12.6-25.7,11.6c-4.6,25,21.9,60.6,25.8,65.7
		c2.3,100.8,114.2,139.8,114.2,139.8s26.9,15.8,55.3,17.6L474.4,173.6L474.4,173.6z"/>
	<path class="st0" d="M304.8,284.2c0,0-3.1-77.7,40.2-98.7c29.2-14.2,46.7,10.8,129.4,10.8s101.8-27,127.3-12.8
		c39.4,21.9,41.7,101.2,41.7,101.2l1.2-88.3c0.3-18.9-15.2-34.3-34.1-34l-279.3,5c-16.7,0.3-30,14.3-29.4,31L304.8,284.2z"/>
	<polygon class="st4" points="480,598.9 436,631.8 480,749.7 523.4,634.3 	"/>
	<polygon class="st5" points="506.4,622.2 480,598.9 453.6,622.2 467.6,644.8 456.8,696.8 480,751.1 503.2,696.8 492.4,644.8 	"/>
	<polygon class="st6" points="480,598.9 428,651.6 413.8,552.1 	"/>
	<polyline class="st6" points="546.2,552.1 480,598.9 532,651.6 	"/>
	<polygon class="st7" points="405.1,552.1 360.9,565.1 357,619.7 390.8,608.2 373.9,636.6 478.7,751.1 	"/>
	<polygon class="st8" points="413.8,552.1 369.6,565.1 365.8,619.7 399.6,608.2 382.7,636.6 480,751.1 	"/>
	<polygon class="st7" points="560.6,552.1 604.8,565.1 608.6,619.7 574.8,608.2 591.7,636.6 481.3,751.1 	"/>
	<polygon class="st8" points="547.5,552.1 591.7,565.1 595.5,619.7 561.7,608.2 578.6,636.6 481.3,751.1 	"/>
	<g>
		<path class="st9" d="M350.6,877.1h-49.8c-20.1,0-35.4-18.2-31.8-38l32.6-142.8c5.2-33.8,34.4-59,68.7-59h1.9
			c34.3,0,63.5,25.2,68.7,59L473.5,839c3.6,19.8-11.6,38.1-31.8,38.1h-47.4"/>
		<path class="st10" d="M288.4,754.1l13.1-57.2c9.7-35.9,34.4-58.4,68.7-58.4h1.9c34.3,0,58.2,25.3,68.7,58.4l13.1,57.4"/>
		<path d="M398.4,866.2h8.8c6.3,0,11.4,5.1,11.4,11.4v1.5c0,6.3-5.1,11.4-11.4,11.4h-8.8c-6.3,0-11.4-5.1-11.4-11.4v-1.5
			C387,871.3,392.1,866.2,398.4,866.2z"/>
		<path d="M340.1,866.2h8.8c6.3,0,11.4,5.1,11.4,11.4v1.5c0,6.3-5.1,11.4-11.4,11.4h-8.8c-6.3,0-11.4-5.1-11.4-11.4v-1.5
			C328.8,871.3,333.9,866.2,340.1,866.2z"/>
		<path class="st10" d="M413.8,538.1L413.8,538.1c-24,0-43.5,19.5-43.5,43.5v12.8v44"/>
		<path class="st10" d="M546.2,538.1L546.2,538.1c24.8,0,45,20.1,45,45v215"/>
		<ellipse class="st8" cx="591.2" cy="798.1" rx="40.2" ry="40.2"/>
		<ellipse cx="591.2" cy="798.1" rx="25.2" ry="25.1"/>
		<ellipse class="st11" cx="591.2" cy="798.1" rx="16" ry="16"/>
	</g>
	<g>
		<path class="st12" d="M441.6,357.8h-88.7c-7.1,0-12.8-5.7-12.8-12.8v-50.5c0-7.1,5.7-12.8,12.8-12.8h88.7
			c7.1,0,12.8,5.7,12.8,12.8V345C454.3,352.1,448.6,357.8,441.6,357.8z"/>
		<path class="st12" d="M591.6,357.8h-88.7c-7.1,0-12.8-5.7-12.8-12.8v-50.5c0-7.1,5.7-12.8,12.8-12.8h88.7
			c7.1,0,12.8,5.7,12.8,12.8V345C604.4,352.1,598.7,357.8,591.6,357.8z"/>
		<path class="st13" d="M441.6,357.8h-88.7c-7.1,0-12.8-5.7-12.8-12.8v-50.5c0-7.1,5.7-12.8,12.8-12.8h88.7
			c7.1,0,12.8,5.7,12.8,12.8V345C454.3,352.1,448.6,357.8,441.6,357.8z"/>
		<path class="st13" d="M591.6,357.8h-88.7c-7.1,0-12.8-5.7-12.8-12.8v-50.5c0-7.1,5.7-12.8,12.8-12.8h88.7
			c7.1,0,12.8,5.7,12.8,12.8V345C604.4,352.1,598.7,357.8,591.6,357.8z"/>
		<path class="st14" d="M454.3,325.4c0-10.6,8-19.2,17.9-19.2s17.9,8.6,17.9,19.2"/>
	</g>
</g>
</svg>
