<?xml version="1.0" encoding="UTF-8"?>
<svg viewBox="0 0 640 480" xmlns="http://www.w3.org/2000/svg">
 <path d="m346.91 186.25c1.6369 5.6622 2.5222 12.038 2.5222 19.246 0 12.741-2.7916 25.027-7.7894 36.283 7.3397-5.2267 13.922-10.589 20.281-15.518 22.538-17.473 43.809-23.55 60.269-24.564 8.8266-0.54292 23.297-7.3437 23.297-15.447h-98.58zm-3.2191 19.246c0-44.822-41.024-56.977-77.489-62.801-36.753-5.8689-79.262-18.992-79.262-58.243 0-19.246 12.03-38.366 32.667-38.366 30.388 0 35.706 23.044 35.833 26.336 0.12762 3.292-8.8449 5.6298-10.004 12.155-1.3938 7.8502 2.0259 15.7 6.9649 22.031 4.4083 5.6521 10.761 17.094 17.094 16.081 6.7806-1.0838 9.2419-12.662 11.142-20.258 1.9003-7.5969 5.1902-14.055 2.0258-21.146-3.92-8.7821-7.8502-4.4326-10.889-10.761-1.7402-3.6243-8.4762-40.391-49.127-40.391-28.354 0-54.192 23.425-56.724 50.014-3.6263 38.068 11.395 52.419 43.049 67.36 49.317 23.277 100.53 22.284 100.53 54.951 0 31.907-10.887 48.872-29.628 61.282-3.2332 2.1433-9.3837 4.9552-15.402 7.0257v22.418c1.2439-0.17218 2.4958-0.36261 3.7539-0.57535 42.034-7.0904 75.461-44.569 75.461-87.112zm-48.511-19.246h-240.68c0 8.1034 14.471 14.904 23.297 15.447 16.46 1.0129 37.732 7.0905 60.269 24.564 23.018 17.846 48.943 41.34 103.19 43.629v69.003c3.1502 0.57938 6.663 0.89542 10.51 0.89542 1.6085 0 4.1064-0.10132 6.9649-0.40314v-72.842c29.107-6.3774 45.031-31.226 45.031-64.086-0.004059-6.7623-2.7795-11.845-8.5856-16.207zm-53.922 205.36c4.8945 2.9841 10.909 4.2907 17.473 5.1781v-26.948c-5.8446 0.393-11.724 0.31805-17.473-0.26132v22.031zm57.864 21.79c-9.3696-7.0904-21.525-8.7354-43.175-11.395-25.633-3.1502-32.397-19.276-33.153-36.277-6.6509-2.2062-12.803-5.2773-18.119-9.2885-1.2297 5.7919-1.7807 11.817-1.7807 17.963 0 25.576 27.568 36.441 47.101 39.251 20.258 2.9132 39.251 3.6709 41.911 4.8114 2.6863 1.1507 4.3049 2.4067 5.4455 3.6708s4.1773 3.0388 6.0775 1.7726c1.9002-1.2661 0.3768-6.9628-4.307-10.508zm-69.132-78.518c1.6409-1.6835 3.5149-3.1502 5.5265-4.4387v-15.644c-4.8722 2.745-9.0819 5.8182-12.698 9.2116-0.002029 4.2097 2.5161 8.0386 7.1715 10.871zm55.711-7.3275c0 12.155-15.954 17.979-33.933 17.979s-34.693-7.0905-34.693-21.525c0-17.811 7.3235-24.16 18.441-27.019v-25.007c-24.385 1.884-44.524 24.31-44.524 43.416 0 13.928 2.4614 35.76 41.024 46.848 40.517 11.649 87.112-13.928 87.112-39.504 0-12.408-6.3531-18.415-14.687-21.018-6.9163-2.1616-15.123-5.2449-39.966 1.9266v15.781c3.9221-1.0838 7.4106-1.7544 10.844-1.7544 7.0905 0 10.382 2.2791 10.382 9.876zm-132.44 142.32h193.47c0-3.1644-10.255-7.7226-19.12-8.4843-8.8651-0.76172-20.759-1.2479-23.423-3.5452-3.6708-3.1644-9.5255-5.3564-17.22-7.2161-7.8502-1.9002-28.236-3.5453-28.236-14.687v-15.467c-3.1968-0.31805-6.3855-0.6807-9.5539-1.1365-2.4553-0.35452-5.1274-0.8468-7.919-1.5012v18.105c0 11.142-20.384 12.787-28.236 14.687-7.6942 1.8618-13.549 4.0517-17.22 7.2161-2.664 2.2973-14.562 2.7855-23.423 3.5452-8.8611 0.7597-19.118 5.3199-19.118 8.4843z" fill="#00007f"/>
</svg>
